<svg width="20" height="20" viewBox="0 0 20 20" fill="none" xmlns="http://www.w3.org/2000/svg">
<g id="vuesax/linear/briefcase">
<g id="briefcase">
<path id="Vector" d="M6.66636 18.3333H13.333C16.683 18.3333 17.283 16.9917 17.458 15.3583L18.083 8.69167C18.308 6.65833 17.7247 5 14.1664 5H5.83303C2.27469 5 1.69136 6.65833 1.91636 8.69167L2.54136 15.3583C2.71636 16.9917 3.31636 18.3333 6.66636 18.3333Z" stroke="#EBF7FB" stroke-width="1.25" stroke-miterlimit="10" stroke-linecap="round" stroke-linejoin="round"/>
<path id="Vector_2" d="M6.66699 5.00002V4.33335C6.66699 2.85835 6.66699 1.66669 9.33366 1.66669H10.667C13.3337 1.66669 13.3337 2.85835 13.3337 4.33335V5.00002" stroke="#EBF7FB" stroke-width="1.25" stroke-miterlimit="10" stroke-linecap="round" stroke-linejoin="round"/>
<path id="Vector_3" d="M11.6663 10.8333V11.6667C11.6663 11.675 11.6663 11.675 11.6663 11.6833C11.6663 12.5917 11.658 13.3333 9.99967 13.3333C8.34967 13.3333 8.33301 12.6 8.33301 11.6917V10.8333C8.33301 10 8.33301 10 9.16634 10H10.833C11.6663 10 11.6663 10 11.6663 10.8333Z" stroke="#EBF7FB" stroke-width="1.25" stroke-miterlimit="10" stroke-linecap="round" stroke-linejoin="round"/>
<path id="Vector_4" d="M18.042 9.16669C16.117 10.5667 13.917 11.4 11.667 11.6834" stroke="#EBF7FB" stroke-width="1.25" stroke-miterlimit="10" stroke-linecap="round" stroke-linejoin="round"/>
<path id="Vector_5" d="M2.18359 9.39166C4.05859 10.675 6.17526 11.45 8.33359 11.6917" stroke="#EBF7FB" stroke-width="1.25" stroke-miterlimit="10" stroke-linecap="round" stroke-linejoin="round"/>
</g>
</g>
</svg>
