<svg width="20" height="20" viewBox="0 0 20 20" fill="none" xmlns="http://www.w3.org/2000/svg">
    <path d="M10 1.66666V7.49999L11.6667 5.83332" stroke="#EBF7FB" stroke-width="1.25" stroke-linecap="round" stroke-linejoin="round"/>
    <path d="M9.99967 7.50001L8.33301 5.83334" stroke="#EBF7FB" stroke-width="1.25" stroke-linecap="round" stroke-linejoin="round"/>
    <path d="M1.65039 10.8333H5.32539C5.64206 10.8333 5.92539 11.0083 6.06706 11.2917L7.04206 13.2417C7.32539 13.8083 7.90039 14.1667 8.53372 14.1667H11.4754C12.1087 14.1667 12.6837 13.8083 12.9671 13.2417L13.9421 11.2917C14.0837 11.0083 14.3754 10.8333 14.6837 10.8333H18.3171" stroke="#EBF7FB" stroke-width="1.25" stroke-linecap="round" stroke-linejoin="round"/>
    <path d="M5.83366 3.44168C2.88366 3.87501 1.66699 5.60835 1.66699 9.16668V12.5C1.66699 16.6667 3.33366 18.3333 7.50033 18.3333H12.5003C16.667 18.3333 18.3337 16.6667 18.3337 12.5V9.16668C18.3337 5.60835 17.117 3.87501 14.167 3.44168" stroke="#EBF7FB" stroke-width="1.25" stroke-linecap="round" stroke-linejoin="round"/>
</svg>