<svg width="20" height="20" viewBox="0 0 20 20" fill="none" xmlns="http://www.w3.org/2000/svg">
    <path d="M7.63314 9.05832C7.5498 9.04999 7.4498 9.04999 7.35814 9.05832C5.3748 8.99166 3.7998 7.36666 3.7998 5.36666C3.7998 3.32499 5.4498 1.66666 7.4998 1.66666C9.54147 1.66666 11.1998 3.32499 11.1998 5.36666C11.1915 7.36666 9.61647 8.99166 7.63314 9.05832Z" stroke="#EBF7FB" stroke-width="1.25" stroke-linecap="round" stroke-linejoin="round"/>
    <path d="M13.6747 3.33334C15.2914 3.33334 16.5914 4.64168 16.5914 6.25001C16.5914 7.82501 15.3414 9.10834 13.7831 9.16668C13.7164 9.15834 13.6414 9.15834 13.5664 9.16668" stroke="#EBF7FB" stroke-width="1.25" stroke-linecap="round" stroke-linejoin="round"/>
    <path d="M3.4666 12.1333C1.44993 13.4833 1.44993 15.6833 3.4666 17.025C5.75827 18.5583 9.5166 18.5583 11.8083 17.025C13.8249 15.675 13.8249 13.475 11.8083 12.1333C9.52494 10.6083 5.7666 10.6083 3.4666 12.1333Z" stroke="#EBF7FB" stroke-width="1.25" stroke-linecap="round" stroke-linejoin="round"/>
    <path d="M15.2832 16.6667C15.8832 16.5417 16.4499 16.3 16.9165 15.9417C18.2165 14.9667 18.2165 13.3583 16.9165 12.3833C16.4582 12.0333 15.8999 11.8 15.3082 11.6667" stroke="#EBF7FB" stroke-width="1.25" stroke-linecap="round" stroke-linejoin="round"/>
</svg>