<svg width="20" height="20" viewBox="0 0 20 20" fill="none" xmlns="http://www.w3.org/2000/svg">
    <g id="vuesax/linear/notification">
    <g id="notification">
    <path id="Vector" d="M10.0165 2.42505C7.25816 2.42505 5.0165 4.66672 5.0165 7.42505V9.83338C5.0165 10.3417 4.79983 11.1167 4.5415 11.55L3.58316 13.1417C2.9915 14.125 3.39983 15.2167 4.48316 15.5834C8.07483 16.7834 11.9498 16.7834 15.5415 15.5834C16.5498 15.2501 16.9915 14.0584 16.4415 13.1417L15.4832 11.55C15.2332 11.1167 15.0165 10.3417 15.0165 9.83338V7.42505C15.0165 4.67505 12.7665 2.42505 10.0165 2.42505Z" stroke="#EFEFEF" stroke-width="1.25" stroke-miterlimit="10" stroke-linecap="round"/>
    <path id="Vector_2" d="M11.5579 2.66658C11.2996 2.59158 11.0329 2.53324 10.7579 2.49991C9.95794 2.39991 9.19128 2.45824 8.47461 2.66658C8.71628 2.04991 9.31628 1.61658 10.0163 1.61658C10.7163 1.61658 11.3163 2.04991 11.5579 2.66658Z" stroke="#EFEFEF" stroke-width="1.25" stroke-miterlimit="10" stroke-linecap="round" stroke-linejoin="round"/>
    <path id="Vector_3" d="M12.5166 15.8834C12.5166 17.2584 11.3916 18.3834 10.0166 18.3834C9.33327 18.3834 8.69993 18.1001 8.24993 17.6501C7.79993 17.2001 7.5166 16.5668 7.5166 15.8834" stroke="#EFEFEF" stroke-width="1.25" stroke-miterlimit="10"/>
    </g>
    </g>
</svg>