<svg width="20" height="20" viewBox="0 0 20 20" fill="none" xmlns="http://www.w3.org/2000/svg">
    <path d="M8.33431 18.3334H13.3343C17.501 18.3334 19.1676 16.6667 19.1676 12.5V7.50002C19.1676 3.33335 17.501 1.66669 13.3343 1.66669H8.33431C4.16764 1.66669 2.50098 3.33335 2.50098 7.50002V12.5C2.50098 16.6667 4.16764 18.3334 8.33431 18.3334Z" stroke="#EBF7FB" stroke-width="1.25" stroke-linecap="round" stroke-linejoin="round"/>
    <path d="M13.7507 15.4166C14.6673 15.4166 15.4173 14.6666 15.4173 13.75V6.24998C15.4173 5.33331 14.6673 4.58331 13.7507 4.58331C12.834 4.58331 12.084 5.33331 12.084 6.24998V13.75C12.084 14.6666 12.8257 15.4166 13.7507 15.4166Z" stroke="#EBF7FB" stroke-width="1.25" stroke-linecap="round" stroke-linejoin="round"/>
    <path d="M7.91764 15.4167C8.83431 15.4167 9.58431 14.6667 9.58431 13.75V10.8334C9.58431 9.91669 8.83431 9.16669 7.91764 9.16669C7.00098 9.16669 6.25098 9.91669 6.25098 10.8334V13.75C6.25098 14.6667 6.99264 15.4167 7.91764 15.4167Z" stroke="#EBF7FB" stroke-width="1.25" stroke-linecap="round" stroke-linejoin="round"/>
</svg>